<svg width="62" height="18" viewBox="0 0 62 18" fill="none" xmlns="http://www.w3.org/2000/svg">
<path d="M8.93917 13.1658C8.93917 12.8634 8.89266 12.5744 8.79963 12.3055C8.70659 12.0367 8.54378 11.7881 8.3112 11.5528C8.09025 11.3243 7.80533 11.116 7.45064 10.9345C7.09014 10.7396 6.64823 10.5515 6.12492 10.37C5.47369 10.1751 4.85153 9.92643 4.26426 9.61728C3.67117 9.31485 3.15367 8.94522 2.70595 8.5151C2.25241 8.07153 1.89191 7.56076 1.61281 6.98279C1.34534 6.41153 1.21742 5.74619 1.21742 4.99348C1.21742 4.28109 1.34534 3.62246 1.61281 3.03105C1.89191 2.43963 2.26404 1.9423 2.72921 1.52562C3.19438 1.0955 3.74094 0.772909 4.38055 0.557848C5.03178 0.329347 5.72953 0.208374 6.4738 0.208374C7.24713 0.208374 7.9507 0.342787 8.5903 0.611613C9.24153 0.866999 9.79973 1.22991 10.2649 1.7138C10.7301 2.18424 11.0906 2.73534 11.358 3.38052C11.6197 4.0257 11.7534 4.73809 11.7534 5.50425H8.93917C8.92173 5.11445 8.85777 4.75153 8.75311 4.42894C8.66008 4.10635 8.50308 3.8308 8.28794 3.59558C8.08443 3.36708 7.82859 3.18562 7.52042 3.05793C7.20643 2.93696 6.84593 2.86975 6.42728 2.86975C6.05515 2.86975 5.71209 2.92352 5.40391 3.03105C5.10737 3.13858 4.85734 3.29315 4.65965 3.48805C4.45614 3.66951 4.29914 3.89129 4.19448 4.16012C4.08401 4.42894 4.03167 4.71793 4.03167 5.02036C4.03167 5.34295 4.10145 5.63866 4.241 5.90748C4.38055 6.16287 4.57824 6.39137 4.84571 6.60643C5.12481 6.80805 5.45043 6.99623 5.82256 7.17097C6.1947 7.33226 6.61916 7.49356 7.10177 7.65485C7.78207 7.89008 8.41005 8.16562 8.98569 8.48821C9.55552 8.8108 10.0439 9.20732 10.451 9.67105C10.8696 10.1213 11.1952 10.6388 11.4278 11.2302C11.6604 11.8082 11.7767 12.44 11.7767 13.1389C11.7767 13.8916 11.643 14.5637 11.3813 15.1551C11.1138 15.7465 10.7533 16.2506 10.2882 16.6605C9.82299 17.057 9.26479 17.3595 8.61356 17.5745C7.97395 17.7694 7.28784 17.8702 6.54357 17.8702C6.06096 17.8702 5.58998 17.8165 5.12481 17.7089C4.65965 17.6216 4.20611 17.4804 3.77583 17.2788C3.35718 17.0839 2.96179 16.8353 2.58966 16.5261C2.22916 16.2035 1.91517 15.8473 1.63607 15.4508C1.3686 15.0408 1.15928 14.5771 1.0081 14.0529C0.851102 13.5354 0.775513 12.9507 0.775513 12.3055H3.58977C3.6014 12.8298 3.6828 13.2733 3.82235 13.6497C3.97353 14.026 4.17704 14.3352 4.42707 14.5637C4.68872 14.7989 4.99689 14.9669 5.3574 15.0744C5.71209 15.182 6.10748 15.2357 6.54357 15.2357C6.9157 15.2357 7.24713 15.1954 7.54368 15.1013C7.83441 14.9938 8.08443 14.8527 8.28794 14.6712C8.50308 14.4965 8.66589 14.2814 8.77637 14.026C8.88103 13.7572 8.93917 13.4749 8.93917 13.1658Z" fill="#444438"/>
<path d="M19.0757 1.74072V4.88599H23.2157V7.30542H19.0757V12.7895C19.0757 13.2599 19.1222 13.6497 19.2153 13.9723C19.3083 14.2815 19.4362 14.5234 19.6107 14.6981C19.7793 14.8796 19.9828 15.014 20.2154 15.1014C20.4596 15.1753 20.7329 15.2089 21.0294 15.2089C21.262 15.2089 21.483 15.2022 21.7039 15.182C21.9365 15.1484 22.1516 15.1148 22.3552 15.0745C22.5703 15.0409 22.7622 15.0073 22.9366 14.967C23.1227 14.9334 23.2739 14.8998 23.4018 14.8594L23.6809 17.1176C23.4948 17.2453 23.2622 17.3595 22.9831 17.467C22.7157 17.5611 22.4366 17.6283 22.1458 17.6821C21.8493 17.7493 21.5411 17.8031 21.2155 17.8434C20.8899 17.877 20.5701 17.8972 20.2619 17.8972C19.6572 17.8972 19.1048 17.8031 18.6106 17.6283C18.1105 17.4536 17.686 17.1646 17.3314 16.7681C16.9883 16.3783 16.715 15.881 16.5173 15.2896C16.3313 14.6847 16.2382 13.9589 16.2382 13.1121V7.30542H13.7031V4.88599H16.2382V1.74072H19.0757Z" fill="#444438"/>
<path d="M33.329 17.6552C33.265 17.4939 33.2011 17.3192 33.1429 17.1176C33.0964 16.9025 33.0557 16.6874 33.0266 16.4724C32.8697 16.674 32.6894 16.8622 32.4917 17.0369C32.2882 17.1982 32.0614 17.3461 31.8172 17.467C31.5672 17.5947 31.2881 17.6888 30.9799 17.7627C30.6834 17.8501 30.3636 17.8972 30.0263 17.8972C29.4507 17.8972 28.9216 17.8031 28.4448 17.6283C27.9796 17.4334 27.5726 17.1646 27.2353 16.8219C26.8923 16.4858 26.6306 16.0826 26.4446 15.6121C26.2585 15.1484 26.1655 14.6376 26.1655 14.0798C26.1655 12.7357 26.5957 11.7007 27.4679 10.9615C28.3343 10.2289 29.6309 9.85927 31.3521 9.85927H32.9336V9.07967C32.9336 8.47481 32.7534 7.99093 32.3987 7.62801C32.0556 7.27182 31.5614 7.09036 30.9101 7.09036C30.3345 7.09036 29.91 7.23821 29.6309 7.52048C29.3635 7.80947 29.2355 8.19255 29.2355 8.67643H26.398C26.398 8.13878 26.4969 7.62801 26.7004 7.14412C26.9155 6.6468 27.2179 6.21667 27.6075 5.85376C28.0087 5.4774 28.4971 5.18169 29.0727 4.96663C29.66 4.75157 30.3171 4.64404 31.0497 4.64404C31.73 4.64404 32.358 4.74485 32.9336 4.93975C33.5034 5.12121 34.0035 5.39676 34.4221 5.77311C34.8408 6.13603 35.1664 6.59975 35.399 7.17101C35.6432 7.72882 35.7711 8.374 35.7711 9.10655V14.5906C35.7711 15.2761 35.806 15.8474 35.8874 16.3111C35.963 16.7614 36.0735 17.1445 36.213 17.467V17.6552H33.329ZM30.631 15.3433C30.9101 15.3433 31.1718 15.3097 31.4218 15.2358C31.666 15.1686 31.887 15.0678 32.0731 14.9401C32.2708 14.7989 32.4452 14.6444 32.5847 14.4831C32.7359 14.3218 32.8522 14.1605 32.9336 13.9992V11.7948H31.4683C31.0322 11.7948 30.6543 11.8486 30.3287 11.9561C30.0147 12.0502 29.7589 12.1846 29.5612 12.3593C29.3751 12.5408 29.2355 12.7559 29.1425 13.0045C29.0495 13.2599 29.003 13.5287 29.003 13.811C29.003 14.2613 29.1309 14.6309 29.3984 14.9132C29.66 15.2022 30.0728 15.3433 30.631 15.3433Z" fill="#444438"/>
<path d="M46.9078 4.64404C47.338 4.64404 47.7334 4.68437 48.0939 4.75157C48.4661 4.80534 48.7684 4.87927 49.001 4.96663L48.5824 8.21943C48.1928 8.13206 47.8032 8.05813 47.4194 8.00437C47.0299 7.9506 46.6577 7.92372 46.303 7.92372C45.5123 7.92372 44.8727 8.10518 44.3959 8.46137C43.9133 8.80413 43.5469 9.30817 43.3027 9.9668V17.6552H40.4652V4.88599H43.1167L43.2562 6.95595C43.7039 6.24356 44.2389 5.67902 44.861 5.26234C45.4948 4.85238 46.1751 4.64404 46.9078 4.64404Z" fill="#444438"/>
<path d="M56.7419 1.74072V4.88599H60.8819V7.30542H56.7419V12.7895C56.7419 13.2599 56.7884 13.6497 56.8814 13.9723C56.9745 14.2815 57.1024 14.5234 57.2768 14.6981C57.4455 14.8796 57.649 15.014 57.8816 15.1014C58.1258 15.1753 58.3991 15.2089 58.6956 15.2089C58.9282 15.2089 59.1491 15.2022 59.3701 15.182C59.6027 15.1484 59.8178 15.1148 60.0213 15.0745C60.2365 15.0409 60.4283 15.0073 60.6028 14.967C60.7888 14.9334 60.94 14.8998 61.0679 14.8594L61.347 17.1176C61.161 17.2453 60.9284 17.3595 60.6493 17.467C60.3818 17.5611 60.1027 17.6283 59.812 17.6821C59.5155 17.7493 59.2073 17.8031 58.8817 17.8434C58.556 17.877 58.2362 17.8972 57.9281 17.8972C57.3234 17.8972 56.771 17.8031 56.2767 17.6283C55.7767 17.4536 55.3522 17.1646 54.9975 16.7681C54.6545 16.3783 54.3812 15.881 54.1835 15.2896C53.9974 14.6847 53.9044 13.9589 53.9044 13.1121V7.30542H51.3692V4.88599H53.9044V1.74072H56.7419Z" fill="#444438"/>
</svg>
