<svg width="857" height="604" viewBox="0 0 857 604" fill="none" xmlns="http://www.w3.org/2000/svg">
<path d="M695.981 303.875L695.388 384.745L688.655 385.605L687.701 420.593L682.358 419.598C682.201 420.068 676.264 418.482 673.485 417.3C667.99 414.967 662.989 413.012 657.483 410.747C651.918 408.455 646.459 405.041 641.534 401.278C636.324 397.306 632.376 393.092 627.811 388.327C627.329 387.823 626.805 387.547 626.276 387.453L625.136 386.203L628.393 349.844L630.829 353.138C631.881 334.736 637.394 326.927 637.394 326.927L695.981 303.875ZM628.701 417.575C628.701 417.575 632.05 429.652 637.981 434.33L630.957 472.14L624.834 493.962L628.701 417.575ZM641.528 476.132L652.936 441.595C675.374 440.566 682.346 419.591 682.346 419.591L683.933 420.586L687.161 524.917L630.951 524.42L629.195 521.046L641.528 476.132ZM749.557 275.682L728.485 384.335L708.134 384.429V300.233L733.119 289.701L735.689 271.878C740.12 275.178 749.557 275.682 749.557 275.682ZM815.628 292.665L819.965 305.777C819.762 333.688 815.785 339.246 809.174 356.377C802.568 373.501 778.839 384.422 778.839 384.422H738.294L756.668 292.033L815.628 292.665ZM116.245 289.547L142.538 298.425L148.33 331.49L147.626 395.209L142.48 381.277L127.903 381.882L113.524 303.842L116.245 289.547ZM105.267 316.913L118.193 382.527H77.8048C77.8048 382.527 38.8879 376.566 37.2889 319.85C37.2889 319.85 63.6754 328.775 80.276 327.357C80.276 327.35 95.0101 327.881 105.267 316.913ZM756.656 261.555L785.031 259.976L856.609 260.157L855.603 280.098H748.655C750.912 260.272 756.656 261.555 756.656 261.555ZM251.695 532.807V553.944L240.258 559.28C240.264 559.28 238.898 539.279 251.695 532.807ZM293.305 538.607C304.55 548.184 313.342 549.643 313.342 549.643C326.785 552.976 335.012 559.267 335.012 559.267C333.768 540.986 344.182 534.447 344.182 534.447C364.178 519.716 386.896 538.325 386.896 538.325C399.955 548.09 412.271 550.825 412.271 550.825C455.363 560.409 438.035 602.494 438.035 602.494L371.697 602.729L366.853 593.582C365.365 594.704 364.556 602.729 364.556 602.729H349.607L346.264 592.13L343.048 602.662L335.193 602.729C338.036 598.038 335.931 591.371 335.931 591.371L342.444 591.492C344.519 583.71 336.077 581.088 336.077 581.088L270.354 554.77V529.407C278.402 528.358 293.305 538.607 293.305 538.607ZM305.637 591.364C304.428 596.412 307.504 602.89 307.504 602.89H276.716L271.878 594.429L269.581 602.89L254.766 603.065C256.405 598.918 255.01 593.73 255.01 593.73L255.853 591.875L305.637 591.364ZM569.375 161.901L566.508 195.081L559.705 195.189L563.897 161.418L569.375 161.901ZM627.962 193.381C627.962 193.381 641.853 203.328 662.373 192.245L661.885 203.536C661.885 203.536 646.871 201.775 638.411 204.786L640.847 228.261C640.847 228.261 631.62 228.638 630.23 224.82L627.962 193.381ZM602.46 244.021C596.738 244.841 594.767 235.808 594.767 235.808L581.51 152.486C573.305 116.309 584.597 118.688 584.597 118.688L602.46 244.021ZM685.236 253.941L615.101 253.564C601.762 253.289 603.204 244.364 603.204 244.364L667.536 245.291L685.236 253.941ZM604.861 274.385L598.122 318.782C590.854 351.289 566.706 357.701 566.706 357.701L491.012 356.975C499.681 384.872 499.536 422.353 499.536 422.353H427.278L426.743 416.338H392.623L391.327 347.028L385.733 343.372C394.339 294.722 424.592 274.587 424.592 274.587L604.861 274.385ZM301.823 140.967H378.819C378.819 140.967 386.803 139.817 385.117 152.069L373.761 229.189L367.225 228.671L377.726 158.326C377.726 158.326 379.558 148.837 368.673 148.507L309.975 148.695L301.823 140.967ZM511.084 57.8054C511.084 57.8054 498.373 54.7004 507.304 28.8998C507.304 28.8998 514.322 10.7675 533.313 11.8496C533.313 11.8496 537.749 -7.14299 560.804 3.13288C560.804 3.13288 572.811 10.7944 572.643 23.362C572.643 23.362 574.335 35.4928 566.2 37.7711C566.2 37.7711 570.328 56.1118 561.903 66.6766C561.903 66.6766 562.543 43.3761 550.634 54.6332C550.634 54.6332 537.342 54.3845 535.15 28.9066C535.15 28.9066 535.79 45.7956 512.014 38.2483M75.8104 260.104L78.3514 264.721L104.697 265.561L108.331 280.05H1.45363L0.244202 260.11H75.8104V260.104ZM317.487 299.07L320.307 315.3L275.855 314.877L272.081 297.921L317.487 299.07Z" fill="white"/>
</svg>
